# xmcd
#
# Track frame offsets:
# 150
# 12347
# 21839
# 30152
# 42495
# 52289
# 62748
# 73978
# 86370
# 95992
# 106738
# 117522
#
# Disc length: 1685 seconds
#
#
# Revision: 0
# Processed by: cddbd v1.4PL0 Copyright (c) Steve Scherf et al.
# Submitted via: FreeRIP 2.00 
#
DISCID=a506930c
DTITLE=George Jones - White Lightning
DYEAR=1960
DGENRE=Country
TTITLE0=White Lightning
TTITLE1=I'm With The Wrong One
TTITLE2=That's The Way I Feel
TTITLE3=Life To Go
TTITLE4=Don't Do This To Me
TTITLE5=Wandering Soul
TTITLE6=Giveaway Girl
TTITLE7=You're Back Again
TTITLE8=No Use To Cry
TTITLE9=Nothing Can Stop Me
TTITLE10=Flame In My Heart
TTITLE11=Jesus Wants Me
EXTD=Mercury MG 20596\n
EXTT0=
EXTT1=
EXTT2=
EXTT3=
EXTT4=
EXTT5=
EXTT6=
EXTT7=
EXTT8=
EXTT9=
EXTT10=
EXTT11=
PLAYORDER=
